PathFileType	4	(X/Y/Z)	Patient5_TMGait_0pt45_1_left_10.trc.trc
DataRate	CameraRate	NumFrames	NumMarkers	Units	OrigDataRate	OrigDataStartFrame	OrigNumFrames
55.776892430279	55.776892430279	6	32	mm	55.776892430279	89	       141
Frame#	Time	R.ASIS			L.ASIS			Chest			R.Shoulder			Neck			L.Shoulder			L.Elbow			L.Wrist			R.Elbow			R.Wrist			L.Thigh.Superior			L.Thigh.Lateral			L.Thigh.Inferior			L.Patella			L.Shank.Superior			L.Shank.Lateral			L.Shank.Inferior			L.Heel			L.Midfoot.Lateral			L.Midfoot.Superior			L.Toe			R.Thigh.Superior			R.Thigh.Lateral			R.Thigh.Inferior			R.Patella			R.Shank.Superior			R.Shank.Lateral			R.Shank.Inferior			R.Heel			R.Midfoot.Lateral			R.Midfoot.Superior			R.Toe			
		X1	Y1	Z1	X2	Y2	Z2	X3	Y3	Z3	X4	Y4	Z4	X5	Y5	Z5	X6	Y6	Z6	X7	Y7	Z7	X8	Y8	Z8	X9	Y9	Z9	X10	Y10	Z10	X11	Y11	Z11	X12	Y12	Z12	X13	Y13	Z13	X14	Y14	Z14	X15	Y15	Z15	X16	Y16	Z16	X17	Y17	Z17	X18	Y18	Z18	X19	Y19	Z19	X20	Y20	Z20	X21	Y21	Z21	X22	Y22	Z22	X23	Y23	Z23	X24	Y24	Z24	X25	Y25	Z25	X26	Y26	Z26	X27	Y27	Z27	X28	Y28	Z28	X29	Y29	Z29	X30	Y30	Z30	X31	Y31	Z31	X32	Y32	Z32	

89	16.727714285714	988.345248838998	978.996758901059	565.329499629179	978.423523885507	954.811366671745	323.227225315610	1022.407579867483	1436.592744954218	465.146036803821	910.103679491507	1493.044836596970	628.122881261502	893.704929565522	1554.052749064389	444.021797776002	970.438645506164	1502.815402983141	266.285613663954	937.420986307185	1181.512650992734	127.461509971366	1046.689227483011	914.357282166184	162.707420834372	821.438287636732	1171.863931643766	759.870538085923	1040.945975856701	992.378485839599	695.614754039561	963.374944063428	726.120717007384	327.350845214436	872.933330131552	667.607047293878	289.536348043101	930.753503660003	599.101647673740	352.824344443354	898.677272866946	482.232337146752	360.864680510841	830.528210963527	390.247605672206	383.958463705271	751.218866294158	336.389069786828	309.509017343113	773.746540419977	278.240386377661	398.008699252715	596.596612055745	63.313421637791	400.427294373458	685.547302595183	34.885506889750	343.626827553941	783.421880985978	89.763642268689	389.236959628291	886.751602951422	43.789390504437	397.786949273232	1033.525880346675	753.857907187859	595.801162850120	959.326153901322	665.632472390627	646.734240920970	1050.014657132318	625.812526718378	577.257300203003	1064.439702350640	528.446935329567	610.332281464564	1033.470820218700	424.028822248902	570.216088951950	959.742285296022	350.400746859720	645.298033663216	1025.063965274487	283.821305594361	567.793122849816	919.384729807232	55.932078823800	528.039788570045	995.401993220592	24.380550161000	603.504466239525	1099.820736293244	92.823909886151	591.030675739471	1204.409082293485	51.930449749711	592.716055528839	
90	16.745642857143	987.480329068577	976.781419058493	567.684137559412	977.157193516453	953.673098896525	325.663552670081	1021.857021082313	1435.313388924848	468.999438776103	910.505934536364	1490.999213483882	632.927250997153	892.679876996464	1552.770550046576	449.014711830144	967.948919011695	1502.156437227424	270.442761155611	930.977185803986	1181.834547135548	130.470412954973	1039.268359618983	913.841622957312	162.254623754765	823.316601315494	1169.232111710799	764.361672145267	1041.911104563062	989.295034548149	698.392431768194	960.908721630657	725.014158193198	329.456870688183	870.215699943706	667.000267863033	291.361904751476	927.692822178813	598.083635253154	354.556119365675	894.640621504694	480.654613929619	362.121522212508	825.442579608771	389.531937997011	384.822814610822	745.383881641506	336.897246700757	310.271177794635	767.565491201971	278.075065328007	398.513907660228	588.626306444208	64.157467264704	400.306768830640	677.493337311268	35.329593724675	343.549433097520	775.537948464979	89.948671143023	389.056227818602	878.579577136862	43.881117716805	397.683978447009	1030.402314341906	751.228141739994	596.556793193452	955.592758594946	663.377615837768	647.141929332906	1045.545738781053	623.156453436908	576.874826064198	1059.324539210839	525.536828018163	608.964546502830	1027.670179484363	421.638845349952	568.700590152810	954.624914781054	348.158595822980	644.565772349216	1018.597886297798	281.500446605942	565.927371369332	911.323406132308	54.091774254561	526.610766925462	987.186431720833	24.064104842715	602.648237658020	1092.286840860421	90.921038051274	587.568876075880	1196.601414609950	48.901754310003	590.124909697111	
91	16.763571428571	986.374041535505	975.183983982995	570.214443034981	975.866496461227	952.985763922226	328.267471526730	1021.552550299358	1434.412910709285	472.960323999446	911.101471247552	1489.429910041290	637.719793905619	892.058385717531	1551.986609584997	453.964243157723	965.942065191255	1501.909598857276	274.647889179417	924.638876742387	1182.500704448835	133.891488713316	1032.068647300801	913.753097260566	161.976172838741	825.588605645984	1167.031395847169	768.845741027122	1043.126020407888	986.435390530937	701.302864035802	958.841448819865	724.385860255853	331.709227305315	868.120887193498	666.636839345832	293.252605280427	925.470937958026	597.420923643257	356.265939476907	891.675999599771	479.045827993026	363.159310654901	821.241966045128	388.908967885286	385.472689168438	740.251956066184	337.715757925530	310.807661305523	762.001771992302	278.140493143834	398.807288997206	580.817192715724	65.653206576195	400.061818609566	669.555587676741	36.067068203228	343.402968519254	767.932504675398	90.230186076110	388.745835323592	870.436054507941	43.983652045130	397.587508628656	1027.356342890153	749.516157734615	597.181562806370	952.357540178765	661.975101698755	647.810992839754	1041.499431501310	621.471929441382	576.580655132669	1054.795530375978	523.609919260165	607.783085587222	1022.321595146424	420.109911850591	567.584246828348	950.089889967517	346.802041339446	644.370763599403	1012.577390536198	280.047273723131	564.556041842046	903.676576744898	53.034785897583	525.712856745027	979.405224124775	24.206326252702	602.197861883324	1085.089140031745	89.739203818058	585.027435241948	1189.168808675875	46.775887030235	588.369045815999	
92	16.781500000000	985.076903746331	974.283076893721	572.911733802832	974.456419948752	952.895486085361	330.972760523468	1021.458850538177	1433.995896135777	476.980486414668	911.861837221220	1488.496258982974	642.441788421537	891.835419429175	1551.819024073003	458.819860109891	964.473254461314	1502.196296806841	278.876449761912	918.522648827439	1183.668604727736	137.647083914449	1025.075774053563	914.211007308983	161.975997408455	828.111846381786	1165.466142960790	773.263464039929	1044.544312392886	984.102885816418	704.304383152839	957.181646789953	724.377108621389	333.933487229152	866.670260066129	666.637260778710	295.047839679494	924.204501939652	597.241422853701	357.734445982395	889.965701994739	477.487376652120	363.705652707528	818.134631628375	388.466139955465	385.729797953379	735.944686462940	338.935217211133	311.009705560225	757.224099503397	278.534572302404	398.751539078340	573.269444862490	68.034225104258	399.675558092476	661.785269743889	37.196402089492	343.185434538033	760.718098351739	90.605312661061	388.267652470066	862.339785070141	44.079334336529	397.507611694013	1024.462006485474	748.626479622099	597.989745812760	949.395776780731	661.337733462338	648.773392839283	1037.842387460406	620.615343639062	576.672974111007	1050.599977339690	522.511061551570	607.099081140324	1017.223104939805	419.317940780220	567.014858266459	945.701385027080	346.218901206406	644.666454611876	1006.749949969870	279.339292867676	563.781552189599	896.182246019516	52.637696226475	525.273618831620	971.804929512210	24.564983427037	602.044883444854	1077.945451442211	89.108776063237	583.453569514574	1181.837538598144	45.432898031226	587.385347632981	
93	16.799428571429	983.674963569233	974.042519805174	575.743740629139	972.861044503251	953.466364080480	333.718680639526	1021.530178688438	1434.100665026832	481.009052871814	912.767021042662	1488.273143941906	647.059523904998	891.963963738070	1552.297603491797	463.566538520745	963.528511285033	1503.066291573133	283.116479333423	912.763270971424	1185.436937078959	141.620110594522	1018.303137397196	915.278829666981	162.375315021091	830.703803146005	1164.671406986737	777.590580158625	1046.112456487650	982.583292807429	707.362231319810	955.949019232109	725.039453374480	335.917551437393	865.880994939148	667.057498733237	296.570767561064	923.986368005543	597.595785464041	358.715584906064	889.678686410986	476.030994690734	363.486051015584	816.326566160864	388.249917315839	385.430129711678	732.597559700111	340.599075972851	310.781712279997	753.408457751224	279.316486467744	398.224265823469	566.102916148616	71.499820438644	399.136111029432	654.237486060647	38.801872837640	342.899003393486	753.999136926061	91.051214414184	387.593682703247	854.312813781159	44.149009958257	397.452346482898	1021.686102341476	748.308927333792	599.280745466334	946.327082985619	661.264467687655	650.014209883783	1034.343719700759	620.306940344947	577.373862979017	1046.332863748082	521.979320089998	607.117706999236	1012.082627718386	419.056451889267	567.027363061432	940.983327734293	346.197180053907	645.313620855055	1000.837696386003	279.171650035208	563.596157361814	888.640835329103	52.691550413495	525.175907665879	964.186910254480	24.952101040124	602.087785266604	1070.644029591476	88.852571612447	582.727787279073	1174.402289188406	44.711400652803	587.016221301142	
94	16.817357142857	982.256953378494	974.319644355511	578.654272834306	971.044144463477	954.657411904784	336.465125554009	1021.719848258801	1434.687603711856	484.999906767171	913.810764453820	1488.727718766847	651.570259087133	892.363067656163	1553.352283888198	468.227345648671	963.013632193289	1504.479803433425	287.366976308771	907.485026421817	1187.813091591341	145.671472692413	1011.792620654325	916.939311857247	163.288567461949	833.175766288751	1164.677178083376	781.844490497907	1047.776729126592	982.078581402608	710.456672292665	955.185140842656	726.318266062584	337.452162749539	865.784881925981	667.862668380776	297.656487616290	924.896261792111	598.441088725357	358.980005518750	890.980686841594	474.686542452321	362.274715413515	816.015825596486	388.247823181477	384.449705407882	730.377910979037	342.692390007451	310.051304831049	750.740226284680	280.497255886051	397.141233119450	559.462769043596	76.212129431138	398.435102548813	646.973800115874	40.963252358900	342.548663046446	747.865596118147	91.534708297555	386.709909511393	846.378742102911	44.168761926370	397.426924704555	1018.874146635359	748.244843869427	601.188591878119	942.747550675075	661.509217092637	651.466298703776	1030.629996318396	620.228591895432	578.715358152633	1041.551253535286	521.737060066310	607.835298481690	1006.580441593434	419.107800927704	567.520529141137	935.548238715476	346.498084773117	646.116889452418	994.593611416990	279.323964279962	563.876484841442	880.945042557132	52.973841296328	525.278224622021	956.434504829146	25.256128599881	602.234399677609	1063.078627972066	88.812321507707	582.615543075872	1166.756231800908	44.429187534875	587.059498111428	
